<svg fill="none" height="180" viewBox="0 0 360 180" width="360" xmlns="http://www.w3.org/2000/svg"><g fill="#fff"><path clip-rule="evenodd" d="m0 0c0 99.4128 80.5872 180 180 180h-180zm180 180c99.413 0 180-80.5872 180-180v180z" fill-rule="evenodd"/><path d="m79.7783 38.1287c1.5984-.6576 3.4224.1008 4.0848 1.6944.6624 1.5937-.096 3.4224-1.6896 4.0848-1.5935.6624-3.4272-.1008-4.0848-1.6944-.6624-1.5936.0961-3.4224 1.6896-4.0848z"/><path d="m63.7341 116.265c5.3616 5.357 10.824 9.907 15.8784 13.373.1296-8.645-2.3472-16.185-7.704-21.542-5.3616-5.362-12.9024-7.839-21.5472-7.709 3.4656 5.054 8.016 10.517 13.3728 15.878z"/><path d="m102 73.5816c1.224-1.224 3.201-1.224 4.42 0 1.224 1.2192 1.224 3.1968 0 4.416-1.219 1.224-3.196 1.224-4.42 0-1.22-1.2192-1.22-3.1968 0-4.416z"/><path d="m117.078 151.896c7.003 2.899 13.795 5.011 19.791 6.278-3.192-8.04-8.367-14.054-15.365-16.958-7.003-2.9-14.914-2.304-22.8577 1.128 5.1357 3.34 11.4337 6.652 18.4317 9.552z"/><path d="m136.085 97.8289c.662-1.5936 2.491-2.352 4.085-1.6896 1.593.6576 2.352 2.4912 1.694 4.0847-.662 1.594-2.491 2.352-4.085 1.69-1.593-.663-2.357-2.4915-1.694-4.0851z"/><path d="m179.996 164.411c7.579 0 14.659-.648 20.683-1.771-6.024-6.206-13.104-9.787-20.683-9.787s-14.664 3.581-20.683 9.787c6.019 1.123 13.104 1.771 20.683 1.771z"/><path d="m176.869 107.187c0-1.728 1.397-3.125 3.125-3.125s3.125 1.397 3.125 3.125-1.397 3.125-3.125 3.125-3.125-1.397-3.125-3.125z"/><path d="m242.912 151.896c6.998-2.9 13.296-6.212 18.432-9.552-7.944-3.432-15.855-4.028-22.858-1.128-6.998 2.904-12.173 8.918-15.365 16.958 5.996-1.267 12.788-3.379 19.791-6.278z"/><path d="m218.118 100.224c-.658-1.5983.101-3.4223 1.694-4.0847 1.594-.6624 3.423.096 4.085 1.6896.658 1.5936-.101 3.4271-1.694 4.0851-1.594.662-3.423-.096-4.085-1.69z"/><path d="m296.254 116.265c5.357-5.361 9.907-10.824 13.373-15.878-8.645-.13-16.185 2.347-21.547 7.709-5.357 5.357-7.834 12.897-7.704 21.542 5.05-3.466 10.517-8.016 15.878-13.373z"/><path d="m253.571 78.0024c-1.224-1.224-1.224-3.2016 0-4.4208 1.219-1.224 3.196-1.224 4.416 0 1.224 1.2192 1.224 3.1968 0 4.4208-1.22 1.2192-3.197 1.2192-4.416 0z"/><path d="m277.818 43.9079c-1.594-.6624-2.352-2.4911-1.69-4.0848.658-1.5936 2.487-2.352 4.085-1.6944 1.594.6624 2.347 2.4912 1.69 4.0848-.663 1.5936-2.491 2.3568-4.085 1.6944z"/><path d="m30.4321 29.9084c5.8464-1.1952 17.7696-1.3152 19.5696 6.5232-1.3344-7.9296 9.7296-12.3792 15.5856-13.5168-5.8416 1.1952-17.7696 1.32-19.5696-6.5232 1.3344 7.9344-9.7296 12.384-15.5856 13.5168z"/><path d="m53.2068 84.8774c4.944-3.336 15.912-8.0161 20.5776-1.4641-4.272-6.816 4.248-15.1583 9.2256-18.4511-4.944 3.3408-15.912 8.0208-20.5776 1.464 4.272 6.816-4.248 15.1632-9.2256 18.4512z"/><path d="m95.2735 126.96c3.2928-4.977 11.6355-13.497 18.4555-9.225-6.556-4.666-1.876-15.634 1.464-20.5829-3.292 4.9779-11.635 13.4979-18.4507 9.2309 6.5517 4.665 1.872 15.633-1.4688 20.577z"/><path d="m150.257 149.725c1.133-5.856 5.583-16.92 13.512-15.585-7.838-1.8-7.713-13.723-6.523-19.575-1.133 5.861-5.582 16.925-13.512 15.591 7.839 1.8 7.714 13.723 6.523 19.569z"/><path d="m209.755 149.725c-1.191-5.846-1.316-17.769 6.523-19.569-7.93 1.334-12.379-9.73-13.517-15.591 1.195 5.847 1.32 17.775-6.523 19.575 7.934-1.335 12.384 9.729 13.517 15.585z"/><path d="m264.739 126.96c-3.34-4.944-8.016-15.912-1.468-20.577-6.816 4.267-15.159-4.253-18.452-9.2309 3.341 4.9489 8.021 15.9169 1.464 20.5829 6.821-4.272 15.164 4.248 18.456 9.225z"/><path d="m306.802 84.8774c-4.978-3.288-13.498-11.6352-9.226-18.4512-4.666 6.5568-15.634 1.8768-20.578-1.464 4.978 3.2928 13.498 11.6351 9.226 18.4511 4.666-6.552 15.634-1.8719 20.578 1.4641z"/><path d="m329.578 29.9084c-5.856-1.1328-16.92-5.5824-15.586-13.5168-1.8 7.8432-13.723 7.7184-19.569 6.5232 5.856 1.1376 16.92 5.5872 15.585 13.5168 1.8-7.8384 13.723-7.7184 19.57-6.5232z"/></g></svg>